<svg width="110" height="60" viewBox="0 0 110 60" fill="none" xmlns="http://www.w3.org/2000/svg">
<path d="M22.414 23.4206C32.628 23.4206 40.4303 31.0265 40.4303 41.1677C40.4303 52.0132 31.9187 59.4783 19.4349 59.4783C10.7814 59.4783 3.68838 55.8162 0 49.7596L7.2349 43.703C9.64653 47.506 14.0442 50.1822 19.0093 50.1822C25.1094 50.1822 29.2233 46.5201 29.2233 40.886C29.2233 35.252 25.3931 31.5899 19.5768 31.5899C15.8884 31.5899 12.7675 33.1393 10.6396 35.9563L2.55349 32.9984L4.96513 5.2509H36.6001V15.3921H13.7605L12.7675 25.9559C15.321 24.2657 18.5838 23.4206 22.414 23.4206Z" fill="#F5F5F5"/>
<path d="M58.6487 60L66.4204 37.0673L47.6811 24.5913H70.6331L78.8406 0L87.1933 24.5913H110L91.2608 37.0673L99.1777 60L78.8406 45.3606L58.6487 60Z" fill="#F5F5F5"/>
</svg>
