<svg width="34" height="34" viewBox="0 0 34 34" fill="none" xmlns="http://www.w3.org/2000/svg">
<path d="M20.3343 17C20.3343 15.1592 18.8418 13.6665 17.0009 13.6665C15.1599 13.6665 13.6676 15.1592 13.6676 17C13.6676 18.8408 15.1599 20.3335 17.0009 20.3335C18.8418 20.3335 20.3343 18.8408 20.3343 17Z" fill="#1C1C1C"/>
<path fill-rule="evenodd" clip-rule="evenodd" d="M17.0009 8.80225H16.1038C14.2401 8.80176 13.8826 8.81396 12.9601 8.85596C11.9851 8.90039 11.4557 9.06299 11.1032 9.20068C10.6365 9.38232 10.3032 9.59912 9.95316 9.94873C9.60315 10.2988 9.38607 10.6323 9.20481 11.0991C9.06794 11.4517 8.90502 11.9805 8.86044 12.9556C8.81252 14.0098 8.80293 14.3247 8.80293 16.9951C8.80293 19.6655 8.81252 19.9824 8.86044 21.0366C8.90481 22.0112 9.06794 22.5405 9.20481 22.8926C9.38648 23.3594 9.60315 23.6919 9.95316 24.042C10.3032 24.3921 10.6365 24.6089 11.1032 24.79C11.4559 24.9268 11.9851 25.0898 12.9601 25.1348C14.0142 25.1826 14.3307 25.1934 17.0009 25.1934C19.671 25.1934 19.9876 25.1826 21.0418 25.1348C22.0168 25.0903 22.5464 24.9277 22.8985 24.79C23.3654 24.6089 23.6977 24.3921 24.0477 24.0425C24.3977 23.6924 24.6148 23.3604 24.796 22.8936C24.9329 22.5415 25.0958 22.0122 25.1404 21.0371C25.1883 19.9829 25.1987 19.6665 25.1987 16.9976C25.1987 14.3291 25.1883 14.0122 25.1404 12.958C25.096 11.9829 24.9329 11.4541 24.796 11.1021C24.6143 10.6353 24.3977 10.3018 24.0477 9.95166C23.6979 9.60205 23.3652 9.38525 22.8985 9.2041C22.546 9.06689 22.0168 8.9043 21.0418 8.85938C19.9874 8.81152 19.671 8.80225 17.0009 8.80225ZM21.1389 11.6621C21.1389 10.9995 21.6764 10.4624 22.3389 10.4624C23.0014 10.4619 23.5389 10.9995 23.5389 11.6621C23.5389 12.3247 23.0014 12.8623 22.3389 12.8623C21.6764 12.8623 21.1389 12.3247 21.1389 11.6621ZM11.8655 17C11.8655 14.1641 14.1649 11.8647 17.0009 11.8647C19.837 11.8647 22.1356 14.1641 22.1356 17C22.1356 19.8359 19.837 22.1343 17.0009 22.1343C14.1649 22.1343 11.8655 19.8359 11.8655 17Z" fill="#1C1C1C"/>
<path fill-rule="evenodd" clip-rule="evenodd" d="M17 34C26.3888 34 34 26.3887 34 17C34 7.61133 26.3888 0 17 0C7.61116 0 0 7.61133 0 17C0 26.3887 7.61116 34 17 34ZM12.8776 7.06055C13.9438 7.01172 14.2847 7 16.9978 7C19.7145 7 20.0541 7.01172 21.1208 7.06055C22.1854 7.10938 22.9125 7.27783 23.55 7.5249C24.2083 7.78027 24.7646 8.12207 25.3208 8.67822C25.8771 9.23389 26.2187 9.79199 26.475 10.4497C26.7208 11.0854 26.8896 11.812 26.9396 12.8765C26.9875 13.9434 27 14.2842 27 17C27 19.7158 26.9875 20.0557 26.9396 21.1226C26.8896 22.1865 26.7208 22.9136 26.475 23.5498C26.2187 24.207 25.8771 24.7651 25.3208 25.3208C24.7652 25.877 24.2081 26.2197 23.5506 26.4751C22.9143 26.7222 22.1868 26.8906 21.1222 26.9395C20.0555 26.9883 19.7158 27 16.9997 27C14.284 27 13.9434 26.9883 12.8767 26.9395C11.8123 26.8906 11.0855 26.7222 10.4492 26.4751C9.7919 26.2197 9.23398 25.877 8.67835 25.3208C8.12231 24.7651 7.78063 24.207 7.52501 23.5493C7.27792 22.9136 7.10938 22.187 7.06042 21.1221C7.01208 20.0557 7 19.7158 7 17C7 14.2842 7.0125 13.9434 7.06021 12.8765C7.10812 11.8125 7.27688 11.0854 7.5248 10.4492C7.78105 9.79199 8.12272 9.23389 8.67898 8.67822C9.23482 8.12207 9.79274 7.78027 10.4505 7.5249C11.0863 7.27783 11.813 7.10938 12.8776 7.06055Z" fill="#1C1C1C"/>
</svg>
