<svg width="24" height="34" viewBox="0 0 24 34" fill="none" xmlns="http://www.w3.org/2000/svg">
<path d="M11.9995 0C5.38289 0 0 5.29354 0 11.7995C0 18.0621 10.8873 32.6937 11.3509 33.3132L11.7836 33.8922C11.8341 33.9602 11.9147 34 11.9995 34C12.0856 34 12.1656 33.9602 12.2167 33.8922L12.6491 33.3132C13.1129 32.6937 24 18.0621 24 11.7995C24 5.29354 18.6162 0 11.9995 0ZM11.9995 7.57295C14.3702 7.57295 16.298 9.46855 16.298 11.7995C16.298 14.1293 14.3701 16.0261 11.9995 16.0261C9.63013 16.0261 7.70094 14.1293 7.70094 11.7995C7.70094 9.46855 9.63004 7.57295 11.9995 7.57295Z" fill="#F5F5F5"/>
</svg>
