<svg width="34" height="34" viewBox="0 0 34 34" fill="none" xmlns="http://www.w3.org/2000/svg">
<path fill-rule="evenodd" clip-rule="evenodd" d="M17 34C26.3888 34 34 26.3887 34 17C34 7.61133 26.3888 0 17 0C7.61116 0 0 7.61133 0 17C0 26.3887 7.61116 34 17 34ZM19.8051 20.7012C19.4625 21.123 18.8263 21.0698 18.8263 21.0698C14.1757 19.8823 12.9311 15.1724 12.9311 15.1724C12.9311 15.1724 12.8752 14.5361 13.2994 14.1934L14.1398 13.5254C14.5564 13.2046 14.8222 12.4253 14.398 11.6646C14.0727 11.0938 13.7189 10.5391 13.3381 10.0034C12.9681 9.49805 12.1063 8.46338 12.1031 8.46045C11.6875 7.97021 11.0765 7.85645 10.4321 8.19189L10.4238 8.19385L10.4187 8.19531C9.77784 8.56445 9.19998 9.0332 8.70689 9.58447C8.70516 9.58838 8.70343 9.58984 8.70169 9.59131C8.70021 9.59277 8.69872 9.59424 8.69723 9.59717C8.29917 10.0771 8.07132 10.5483 8.01369 11.0098C8.00173 11.0776 7.99758 11.147 8.00134 11.2158C7.9992 11.4194 8.03021 11.6221 8.09316 11.8159L8.11518 11.8311C8.31599 12.5439 8.81858 13.7319 9.91074 15.7119C10.5354 16.8569 11.2559 17.9473 12.0644 18.9712C12.4695 19.4844 12.9037 19.9741 13.3649 20.4375L13.4143 20.4868L13.4637 20.5366L13.5625 20.6353C14.0261 21.0962 14.5157 21.5308 15.0289 21.9355C16.053 22.7441 17.1437 23.4648 18.2893 24.0894C20.269 25.1812 21.4579 25.6836 22.1698 25.8848L22.1849 25.9067C22.3787 25.9697 22.5814 26.001 22.7852 25.999C22.8542 26.0024 22.9233 25.998 22.9914 25.9858C23.4535 25.9312 23.9241 25.7036 24.403 25.3037C24.4058 25.3022 24.4073 25.3008 24.4088 25.2993C24.4104 25.2974 24.412 25.2959 24.4154 25.2939C24.9667 24.8008 25.4359 24.2231 25.8055 23.5825L25.8068 23.5762L25.8082 23.5688C26.1438 22.9248 26.03 22.3135 25.5371 21.8975L25.4281 21.8081C25.1487 21.5781 24.4001 20.9614 23.9939 20.6626C23.4587 20.2817 22.9047 19.9282 22.3342 19.6025C21.5728 19.1787 20.7953 19.4443 20.4731 19.8608L19.8051 20.7012Z" fill="#1C1C1C"/>
</svg>
