<svg width="34" height="34" viewBox="0 0 34 34" fill="none" xmlns="http://www.w3.org/2000/svg">
<path fill-rule="evenodd" clip-rule="evenodd" d="M17 34C26.3888 34 34 26.3888 34 17C34 7.61116 26.3888 0 17 0C7.61116 0 0 7.61116 0 17C0 26.3888 7.61116 34 17 34ZM21.8333 10.1813C22.5108 10.9448 23.4142 11.4718 24.4118 11.6854C24.7413 11.7549 25.0771 11.7898 25.4138 11.7894V15.2119C23.7041 15.215 22.0365 14.6813 20.6457 13.6861V20.6712C20.6456 21.9291 20.271 23.1585 19.5697 24.2024C18.8685 25.2463 17.8723 26.0574 16.7084 26.5321C15.5445 27.0068 14.2657 27.1235 13.0352 26.8675C11.8047 26.6115 10.6783 25.9943 9.79983 25.0946C8.87868 24.1508 8.2753 22.9424 8.07409 21.6385C7.87288 20.3345 8.08391 19.0003 8.67766 17.8223C9.27141 16.6443 10.2182 15.6815 11.3856 15.0686C12.5529 14.4557 13.8825 14.2234 15.1883 14.404V17.9036C14.6027 17.7171 13.973 17.7221 13.3905 17.918C12.808 18.1138 12.3029 18.4903 11.9486 18.9928C11.5943 19.4953 11.4091 20.0978 11.4198 20.7127C11.4306 21.3277 11.6368 21.9232 12.0086 22.413C12.3746 22.8947 12.8823 23.2495 13.4602 23.4275C14.0381 23.6055 14.6572 23.5979 15.2305 23.4056C15.8038 23.2132 16.3025 22.846 16.6565 22.3554C17.0106 21.8647 17.2021 21.2754 17.2042 20.6702V7H20.6457V7.44094C20.7398 8.45772 21.1559 9.41784 21.8333 10.1813Z" fill="#1C1C1C"/>
</svg>
