<svg width="30" height="34" viewBox="0 0 30 34" fill="none" xmlns="http://www.w3.org/2000/svg">
<path fill-rule="evenodd" clip-rule="evenodd" d="M26.7276 2.94303C25.9453 2.21978 22.5686 0.0608042 15.5231 0.0295312C15.5231 0.0295312 7.18009 -0.528265 3.13012 3.20459C0.876039 5.46932 0.116669 8.83714 0.0334125 12.947C0.0306459 13.0835 0.0274949 13.2242 0.0242591 13.3687C-0.0698795 17.5722 -0.23572 24.9774 6.9063 26.9965C6.9063 26.9965 6.87724 32.8252 6.87389 33.3375C6.87389 33.6957 6.92976 33.9408 7.13092 33.9914C7.27564 34.0272 7.49245 33.951 7.67684 33.764C8.85808 32.5568 12.6398 27.9142 12.6398 27.9142C17.714 28.2514 21.7512 27.2319 22.1853 27.0875C22.2875 27.054 22.4348 27.0191 22.6179 26.9757C24.2689 26.584 28.8394 25.4996 29.6829 18.5664C30.6513 10.6271 29.327 5.20777 26.7276 2.94303ZM15.8199 9.62242C15.8334 9.35805 16.055 9.15492 16.3148 9.16871C17.2868 9.22031 18.0955 9.51971 18.6715 10.1257C19.2452 10.7293 19.5265 11.5727 19.5758 12.5855C19.5887 12.8499 19.3885 13.0748 19.1287 13.088C18.8689 13.1011 18.6478 12.8974 18.6349 12.633C18.5926 11.766 18.3589 11.1758 17.9943 10.7922C17.6319 10.4109 17.0788 10.1692 16.2657 10.1261C16.006 10.1123 15.8063 9.88678 15.8199 9.62242ZM15.61 6.597C15.3506 6.57767 15.1248 6.77604 15.1058 7.04006C15.0869 7.30408 15.2818 7.53378 15.5412 7.5531C17.3347 7.68666 18.6817 8.29751 19.6452 9.36771C20.6117 10.4424 21.086 11.782 21.0511 13.4233C21.0455 13.688 21.2518 13.9072 21.5119 13.9129C21.772 13.9186 21.9874 13.7087 21.993 13.4441C22.0326 11.5829 21.4874 9.99606 20.3402 8.7205L20.34 8.72032C19.1803 7.43208 17.5881 6.74431 15.61 6.597ZM14.2743 4.58522C14.2761 4.3205 14.4884 4.1074 14.7486 4.10924C17.4822 4.12862 19.7928 5.05467 21.648 6.89501C23.5188 8.75073 24.4439 11.2771 24.4673 14.4149C24.4693 14.6796 24.26 14.8958 23.9999 14.8978C23.7397 14.8998 23.5273 14.6869 23.5253 14.4222C23.5033 11.4819 22.6437 9.22149 20.9904 7.58146C19.3216 5.92605 17.2497 5.08565 14.742 5.06788C14.4819 5.06603 14.2725 4.84994 14.2743 4.58522ZM17.4022 18.6392C17.0458 19.0861 16.3836 19.0293 16.3836 19.0293C11.5441 17.7721 10.2489 12.7838 10.2489 12.7838C10.2489 12.7838 10.1908 12.11 10.6322 11.7472L11.5067 11.0399C11.9403 10.6999 12.2169 9.87483 11.7754 9.06912C11.4368 8.46434 11.0687 7.87719 10.6724 7.30987C10.2874 6.77482 9.39059 5.67913 9.38724 5.67572C8.95475 5.15659 8.31887 5.03605 7.64834 5.39142C7.64631 5.39142 7.64353 5.39234 7.64085 5.39322C7.63837 5.39404 7.63598 5.39483 7.63437 5.39483C6.96747 5.78584 6.36613 6.28259 5.85301 6.86637C5.85126 6.86993 5.84951 6.87163 5.84776 6.87333C5.84616 6.87489 5.84456 6.87645 5.84295 6.87944C5.42872 7.38815 5.19161 7.88681 5.13164 8.37543C5.11919 8.44747 5.11487 8.52073 5.11879 8.59377C5.11656 8.80954 5.14883 9.02424 5.21434 9.22947L5.23725 9.24539C5.44623 10.0005 5.96923 11.2582 7.10577 13.3552C7.75586 14.5681 8.50561 15.7229 9.34701 16.8072C9.76856 17.3507 10.2204 17.8692 10.7003 18.36C10.7061 18.3659 10.7119 18.3718 10.7176 18.3777C10.7289 18.3894 10.7402 18.401 10.7518 18.4123L10.906 18.5693C11.3883 19.0577 11.8978 19.5175 12.432 19.9464C13.4976 20.8028 14.6326 21.5657 15.8248 22.2271C17.885 23.3836 19.1221 23.9158 19.8631 24.1285L19.8787 24.1518C20.0804 24.2186 20.2914 24.2517 20.5034 24.2496C20.5752 24.2531 20.6472 24.2485 20.718 24.2359C21.1989 24.1779 21.6886 23.937 22.187 23.5132C22.1899 23.5116 22.1915 23.51 22.193 23.5084C22.1947 23.5066 22.1964 23.5048 22.1999 23.503C22.7735 22.9807 23.2619 22.3688 23.6465 21.6903C23.6465 21.6887 23.6472 21.6863 23.6478 21.6837C23.6486 21.681 23.6493 21.6782 23.6493 21.6761C23.9985 20.9938 23.8801 20.3467 23.3671 19.9061C23.3665 19.9061 23.3246 19.871 23.2538 19.8116C22.963 19.5678 22.184 18.9147 21.7612 18.5983C21.2043 18.1951 20.6278 17.8204 20.0341 17.4759C19.2417 17.0267 18.4326 17.3081 18.0974 17.7494L17.4022 18.6392Z" fill="#1C1C1C"/>
</svg>
