<svg width="34" height="34" viewBox="0 0 34 34" fill="none" xmlns="http://www.w3.org/2000/svg">
<path d="M14.998 20.0002L20.194 17.0006L14.998 14.0009V20.0002Z" fill="#1C1C1C"/>
<path fill-rule="evenodd" clip-rule="evenodd" d="M17 34C26.3889 34 34 26.3888 34 17C34 7.61116 26.3889 0 17 0C7.61115 0 0 7.61116 0 17C0 26.3888 7.61115 34 17 34ZM26.5818 12.1864C26.3513 11.3253 25.6746 10.6487 24.8136 10.4182C23.2545 10 16.9999 10 16.9999 10C16.9999 10 10.7455 10 9.18634 10.4182C8.32532 10.6487 7.64868 11.3253 7.41815 12.1864C7 13.7455 7 17.0003 7 17.0003C7 17.0003 7 20.2552 7.41815 21.8143C7.64868 22.6753 8.32532 23.352 9.18634 23.5824C10.7455 24.0006 16.9999 24.0006 16.9999 24.0006C16.9999 24.0006 23.2545 24.0006 24.8136 23.5824C25.6746 23.352 26.3513 22.6753 26.5818 21.8143C27 20.2552 27 17.0003 27 17.0003C27 17.0003 26.9983 13.7455 26.5818 12.1864Z" fill="#1C1C1C"/>
</svg>
